<?xml version="1.0" encoding="UTF-8" standalone="no"?>
<svg
   xmlns:dc="http://purl.org/dc/elements/1.1/"
   xmlns:cc="http://creativecommons.org/ns#"
   xmlns:rdf="http://www.w3.org/1999/02/22-rdf-syntax-ns#"
   xmlns:svg="http://www.w3.org/2000/svg"
   xmlns="http://www.w3.org/2000/svg"
   xmlns:sodipodi="http://sodipodi.sourceforge.net/DTD/sodipodi-0.dtd"
   xmlns:inkscape="http://www.inkscape.org/namespaces/inkscape"
   t="1635654215638"
   class="icon"
   viewBox="0 0 1024 1024"
   version="1.1"
   p-id="2439"
   width="200"
   height="200"
   id="svg8"
   sodipodi:docname="note.svg"
   inkscape:version="0.92.4 (5da689c313, 2019-01-14)">
  <metadata
     id="metadata12">
    <rdf:RDF>
      <cc:Work
         rdf:about="">
        <dc:format>image/svg+xml</dc:format>
        <dc:type
           rdf:resource="http://purl.org/dc/dcmitype/StillImage" />
        <dc:title></dc:title>
      </cc:Work>
    </rdf:RDF>
  </metadata>
  <sodipodi:namedview
     pagecolor="#ffffff"
     bordercolor="#666666"
     borderopacity="1"
     objecttolerance="10"
     gridtolerance="10"
     guidetolerance="10"
     inkscape:pageopacity="0"
     inkscape:pageshadow="2"
     inkscape:window-width="1280"
     inkscape:window-height="692"
     id="namedview10"
     showgrid="false"
     inkscape:zoom="2.3369531"
     inkscape:cx="130.30557"
     inkscape:cy="108.48339"
     inkscape:window-x="0"
     inkscape:window-y="0"
     inkscape:window-maximized="1"
     inkscape:current-layer="svg8" />
  <defs
     id="defs4">
    <style
       type="text/css"
       id="style2" />
  </defs>
  <path
     d="m 808.448,779.81538 -16.896,17.32924 c -18.432,18.90461 -44.544,29.9323 -70.656,29.9323 h -50.688 c -46.08,0 -96.768,-36.23384 -96.768,-102.4 V 675.84 c 0,-39.38462 16.896,-63.01538 27.648,-75.61846 l 207.36,-214.25231 c 6.144,-6.30154 10.752,-18.90461 10.752,-26.78154 V 196.92308 C 819.2,144.93538 777.728,102.4 727.04,102.4 H 235.52 c -50.688,0 -92.16,47.26154 -92.16,94.52308 h -30.72 c -33.792,0 -61.44,28.35692 -61.44,63.01538 0,34.65846 27.648,63.01539 61.44,63.01539 h 30.72 v 126.03077 h -30.72 c -33.792,0 -61.44,28.35692 -61.44,63.01538 0,34.65846 27.648,63.01538 61.44,63.01538 h 30.72 v 126.03077 h -30.72 c -33.792,0 -61.44,28.35693 -61.44,63.01539 0,34.65846 27.648,63.01538 61.44,63.01538 h 30.72 c 0,63.01539 41.472,94.52308 92.16,94.52308 h 491.52 c 50.688,0 92.16,-42.53538 92.16,-94.52308 v -42.53538 c 0,-9.45231 -4.608,-11.02769 -10.752,-4.72616 z M 650.24,338.70769 c 0,17.32923 -13.824,31.50769 -30.72,31.50769 h -307.2 c -16.896,0 -30.72,-14.17846 -30.72,-31.50769 V 307.2 c 0,-17.32923 13.824,-31.50769 30.72,-31.50769 h 307.2 c 16.896,0 30.72,14.17846 30.72,31.50769 z M 512,716.8 c 0,17.32923 -13.824,31.50769 -30.72,31.50769 H 312.32 c -16.896,0 -30.72,-14.17846 -30.72,-31.50769 v -31.50769 c 0,-17.32923 13.824,-31.50769 30.72,-31.50769 h 168.96 c 16.896,0 30.72,14.17846 30.72,31.50769 z m 46.08,-189.04615 c 0,17.32923 -13.824,31.50769 -30.72,31.50769 H 312.32 c -16.896,0 -30.72,-14.17846 -30.72,-31.50769 v -31.5077 c 0,-17.32923 13.824,-31.50769 30.72,-31.50769 h 215.04 c 16.896,0 30.72,14.17846 30.72,31.50769 z m 405.504,-85.07077 -18.432,-18.90462 c -12.288,-12.60308 -30.72,-12.60308 -43.008,0 L 667.136,667.96308 c -1.536,0 -1.536,3.15077 -1.536,4.72615 v 51.98769 c 0,4.72616 0,7.87693 4.608,7.87693 h 50.688 c 1.536,0 4.608,-1.57539 6.144,-1.57539 L 963.584,488.36923 c 12.288,-14.17846 12.288,-33.08308 0,-45.68615 z"
     p-id="2440"
     id="path6"
     inkscape:connector-curvature="0"
     style="fill:#ffffff;stroke-width:1.51910913" />
</svg>
